<svg width="170" height="66" viewBox="0 0 170 66" fill="none" xmlns="http://www.w3.org/2000/svg">
<path d="M66.4331 33.7222C67.4954 34.3333 68.1726 35.4717 68.1726 37.4686C68.1726 41.4466 65.5061 42.2854 61.7596 42.2854H51.416V25.6804H61.7596C65.2366 25.6804 67.8561 26.5005 67.8561 30.2685C67.8561 31.9954 67.3141 33.0618 66.4331 33.7222ZM55.7299 32.4281H61.8488C63.0473 32.4281 63.6794 31.9727 63.6794 30.7919C63.6794 29.4751 62.866 29.0878 61.8057 29.0878H55.7299V32.4281ZM55.7299 35.1987V38.6937H61.8714C62.9787 38.6937 63.8146 38.333 63.8146 36.9255C63.8146 35.518 63.0924 35.1987 61.939 35.1987H55.7299Z" fill="black"/>
<path d="M85.6984 35.5858H74.9265V38.6945H85.7886V42.2851H70.5V25.6802H85.7435V29.2708H74.9265V32.3835H85.6984V35.5868V35.5858Z" fill="black"/>
<path d="M103.631 42.2842H95.1632C90.2839 42.2842 87.8467 40.8757 87.8467 33.995C87.8467 27.1143 90.2849 25.6792 95.1632 25.6792H103.586V29.3379H95.1857C92.9729 29.3379 92.2046 30.2447 92.2046 33.995C92.2046 37.7453 92.9729 38.6294 95.1857 38.6294H99.7465V33.654H103.631V42.2842Z" fill="black"/>
<path d="M113.346 25.6802H118.133L126.217 42.2851H121.746L120.233 39.0592H111.38L109.867 42.2851H105.261L113.346 25.6802ZM112.96 35.6775H118.629L115.784 29.6355L112.961 35.6775H112.96Z" fill="black"/>
<path d="M139.791 25.6802L143.2 36.6296L146.34 25.6802H150.722L145.618 42.2851H140.942L137.465 30.6103L133.875 42.2851H129.246L124.098 25.6802H128.681L131.776 36.6749L135.095 25.6802H139.793H139.791Z" fill="black"/>
<path d="M165.911 37.4457V25.6802H169.999V42.2851H164.624L156.585 30.9297V42.2851H152.476V25.6802H157.716L165.912 37.4457H165.911Z" fill="black"/>
<path d="M17.1045 18.9799V45.7655C17.1045 46.074 17.277 46.3569 17.5504 46.4959L36.3963 56.0989C36.9382 56.3749 37.5781 55.9787 37.5781 55.3685V9.82932C37.5781 9.22513 36.9509 8.8289 36.41 9.09206L17.5641 18.2427C17.2829 18.3797 17.1035 18.6655 17.1035 18.9799H17.1045Z" fill="url(#paint0_linear_509_8626)"/>
<path d="M8.91406 16.2321V48.4209C8.91406 48.7915 9.12182 49.1316 9.45011 49.2991L32.0983 60.8399C32.749 61.1721 33.5193 60.696 33.5193 59.9617V5.23539C33.5193 4.50997 32.7647 4.03391 32.1149 4.34931L9.46677 15.346C9.12868 15.5106 8.91406 15.8546 8.91406 16.2321Z" fill="url(#paint1_linear_509_8626)"/>
<path d="M0 13.9475V51.4183C0 51.85 0.241074 52.2453 0.624243 52.4404L26.9885 65.8746C27.746 66.261 28.6427 65.707 28.6427 64.8525V1.14705C28.6427 0.302361 27.7646 -0.251565 27.0081 0.115091L0.643843 12.9165C0.249893 13.1077 0 13.5079 0 13.9475Z" fill="url(#paint2_linear_509_8626)"/>
<path opacity="0.3" d="M28.6426 6.03566V59.0795L32.098 60.8408C32.098 60.8408 33.5189 61.2302 33.5189 59.9626V5.23533C33.5189 5.23533 33.2396 3.8032 32.1146 4.34924L28.6426 6.03566Z" fill="url(#paint3_linear_509_8626)"/>
<path opacity="0.3" d="M33.5234 10.4817V54.6322L36.3997 56.0978C36.3997 56.0978 37.5825 56.4221 37.5825 55.3675V9.81642C37.5962 9.34726 37.0484 8.75884 36.4144 9.07917L33.5244 10.4827L33.5234 10.4817Z" fill="url(#paint4_linear_509_8626)"/>
<path d="M27.0081 0.115091L0.643843 12.9165C0.249893 13.1077 0 13.5089 0 13.9485V17.8102C3.6945 19.0836 7.96229 21.5566 12.7642 25.9141C31.4532 42.8778 3.77878 48.9404 9.36169 54.3397C10.3995 55.3431 10.8366 56.4963 10.9502 57.7037L26.9885 65.8756C27.746 66.2619 28.6427 65.708 28.6427 64.8535V1.14705C28.6427 0.302361 27.7646 -0.251565 27.0081 0.115091Z" fill="url(#paint5_linear_509_8626)"/>
<path d="M7.4311 48.9068L4.50098 47.4668V30.711L7.4311 29.751V48.9068Z" fill="white"/>
<path d="M12.2915 51.2003L9.36133 49.7967V23.9268L12.2915 22.9668V51.2003Z" fill="white"/>
<path d="M17.1518 53.5295L14.2217 52.1259V15.3943L17.1518 14.4353V53.5295Z" fill="white"/>
<path d="M22.0122 55.9313L19.082 54.4548V21.4598L22.0122 20.4998V55.9313Z" fill="white"/>
<defs>
<linearGradient id="paint0_linear_509_8626" x1="27.3413" y1="-4.69005" x2="27.3413" y2="82.3227" gradientUnits="userSpaceOnUse">
<stop stop-color="#4491E3"/>
<stop offset="1" stop-color="#3271B8"/>
</linearGradient>
<linearGradient id="paint1_linear_509_8626" x1="21.2167" y1="-4.68994" x2="21.2167" y2="82.3228" gradientUnits="userSpaceOnUse">
<stop stop-color="#4491E3"/>
<stop offset="1" stop-color="#3271B8"/>
</linearGradient>
<linearGradient id="paint2_linear_509_8626" x1="14.3213" y1="-4.68987" x2="14.3213" y2="82.3229" gradientUnits="userSpaceOnUse">
<stop stop-color="#4491E3"/>
<stop offset="1" stop-color="#3271B8"/>
</linearGradient>
<linearGradient id="paint3_linear_509_8626" x1="26.6013" y1="32.7582" x2="37.0283" y2="32.4181" gradientUnits="userSpaceOnUse">
<stop stop-color="#1D4276"/>
<stop offset="1" stop-color="#1D4276" stop-opacity="0"/>
</linearGradient>
<linearGradient id="paint4_linear_509_8626" x1="31.8242" y1="32.7304" x2="40.5059" y2="32.4469" gradientUnits="userSpaceOnUse">
<stop stop-color="#1D4276"/>
<stop offset="1" stop-color="#1D4276" stop-opacity="0"/>
</linearGradient>
<linearGradient id="paint5_linear_509_8626" x1="14.3213" y1="-13.2866" x2="14.3213" y2="76.5007" gradientUnits="userSpaceOnUse">
<stop stop-color="#4491E3"/>
<stop offset="1" stop-color="#3271B8"/>
</linearGradient>
</defs>
</svg>
